<?xml version="1.0" standalone="no"?>
<!DOCTYPE svg PUBLIC "-//W3C//DTD SVG 20010904//EN"
 "http://www.w3.org/TR/2001/REC-SVG-20010904/DTD/svg10.dtd">
<svg version="1.0" xmlns="http://www.w3.org/2000/svg"
 width="512.000000pt" height="512.000000pt" viewBox="0 0 512.000000 512.000000"
 preserveAspectRatio="xMidYMid meet">
<metadata>
Created by potrace 1.11, written by Peter Selinger 2001-2013
</metadata>
<g transform="translate(0.000000,512.000000) scale(0.100000,-0.100000)"
fill="#000000" stroke="none">
<path d="M2239 4242 c-173 -87 -512 -258 -754 -380 l-440 -222 1 -1080 c0
-594 2 -1081 5 -1083 2 -2 213 -108 469 -237 256 -128 594 -298 751 -378 l286
-145 504 253 c758 380 1004 504 1008 508 7 4 7 2152 1 2161 -3 4 -295 153
-650 331 -355 178 -692 348 -750 377 -58 29 -108 53 -111 53 -4 0 -148 -71
-320 -158z m-124 -1681 c0 -412 -2 -751 -5 -754 -8 -8 -462 108 -454 116 4 3
7 294 7 645 l0 639 161 37 c88 21 184 44 211 51 28 7 57 14 65 14 13 1 15 -86
15 -748z m974 733 c34 -8 69 -17 78 -19 34 -7 248 -58 278 -65 17 -4 26 -8 20
-9 -7 -1 -10 -222 -9 -644 l1 -643 -126 -33 c-69 -18 -139 -35 -156 -38 -16
-3 -38 -9 -47 -14 -10 -5 -18 -8 -18 -5 0 2 -21 -2 -47 -10 -25 -8 -49 -11
-52 -8 -3 3 -6 343 -7 755 0 585 3 749 12 749 7 0 40 -7 73 -16z"/>
</g>
</svg>
